<?xml version="1.0" encoding="utf-8"?>
<!-- Generator: Adobe Illustrator 19.0.0, SVG Export Plug-In . SVG Version: 6.00 Build 0)  -->
<svg version="1.1" id="Layer_1" xmlns="http://www.w3.org/2000/svg" xmlns:xlink="http://www.w3.org/1999/xlink" x="0px" y="0px"
	 viewBox="0 0 162.7 100.8" style="enable-background:new 0 0 162.7 100.8;" xml:space="preserve">
<style type="text/css">
	.st0{fill:#00798A;}
	.st1{fill:#F7E900;stroke:#008892;stroke-width:0.25;stroke-miterlimit:10;}
	.st2{fill:#FF5E74;}
</style>
<g id="XMLID_523_">
	<g id="XMLID_1_">
		<path id="XMLID_7_" class="st0" d="M22.8,34.5L22.8,34.5L36.8,0h6.5v41.6h-4.2V5.5h-0.1L23.9,41.6h-2.2L6.6,5.5H6.5v36.2H2.2V0
			h6.5L22.8,34.5z"/>
		<path id="XMLID_9_" class="st0" d="M74.7,27.1c0,0.3,0,0.6,0,0.9c0,0.3,0,0.6-0.1,1H51.9c0,1.4,0.3,2.7,0.8,3.9
			c0.5,1.2,1.2,2.3,2.1,3.2c0.9,0.9,2,1.6,3.2,2.1c1.2,0.5,2.5,0.8,3.9,0.8c2.1,0,3.9-0.5,5.4-1.4c1.5-1,2.7-2.1,3.4-3.3l3,2.4
			c-1.6,2.1-3.5,3.6-5.4,4.5s-4.1,1.4-6.4,1.4c-2,0-3.9-0.4-5.7-1.1c-1.7-0.7-3.2-1.7-4.5-3c-1.3-1.3-2.2-2.8-3-4.6
			c-0.7-1.8-1.1-3.7-1.1-5.8c0-2.1,0.4-4,1.1-5.8c0.7-1.8,1.7-3.3,2.9-4.6c1.3-1.3,2.7-2.3,4.4-3c1.7-0.7,3.5-1.1,5.5-1.1
			c2.2,0,4.1,0.4,5.7,1.1c1.6,0.7,3,1.7,4.1,2.9s1.9,2.7,2.5,4.3C74.5,23.4,74.7,25.2,74.7,27.1z M70.7,25.8c-0.1-2.6-1-4.7-2.5-6.4
			s-3.8-2.6-6.6-2.6c-1.3,0-2.6,0.2-3.7,0.7c-1.1,0.5-2.1,1.2-3,2c-0.9,0.8-1.5,1.8-2.1,2.9c-0.5,1.1-0.8,2.2-0.9,3.4H70.7z"/>
		<path id="XMLID_13_" class="st0" d="M82.5,14.1c0.1,0.7,0.1,1.6,0.2,2.5c0,0.9,0.1,1.6,0.1,2.2h0.1c0.8-1.6,2.1-2.9,3.8-3.9
			c1.8-1,3.6-1.5,5.6-1.5c3.5,0,6.1,1,7.9,3.1c1.7,2.1,2.6,4.8,2.6,8.2v16.9h-4V26.4c0-1.5-0.1-2.8-0.4-3.9s-0.6-2.2-1.2-3
			c-0.6-0.8-1.3-1.5-2.3-2c-1-0.5-2.2-0.7-3.6-0.7c-1.1,0-2.1,0.2-3.1,0.6c-1,0.4-1.9,1.1-2.7,2c-0.8,0.9-1.4,2-1.9,3.4
			s-0.7,3-0.7,4.8v14.1h-4V20.2c0-0.7,0-1.7-0.1-2.9c0-1.2-0.1-2.2-0.2-3.2H82.5z"/>
		<path id="XMLID_22_" class="st0" d="M136,27.9c0,2.1-0.4,4-1.1,5.8c-0.7,1.8-1.7,3.3-3,4.6s-2.8,2.3-4.6,3s-3.8,1.1-5.9,1.1
			c-2.1,0-4.1-0.4-5.9-1.1c-1.8-0.7-3.4-1.7-4.6-3s-2.3-2.8-3-4.6c-0.7-1.8-1.1-3.7-1.1-5.8c0-2.1,0.4-4,1.1-5.8
			c0.7-1.8,1.7-3.3,3-4.6c1.3-1.3,2.8-2.3,4.6-3c1.8-0.7,3.8-1.1,5.9-1.1c2.2,0,4.1,0.4,5.9,1.1c1.8,0.7,3.4,1.7,4.6,3
			c1.3,1.3,2.3,2.8,3,4.6C135.7,23.9,136,25.8,136,27.9z M131.8,27.9c0-1.5-0.2-3-0.7-4.3c-0.5-1.4-1.2-2.5-2.1-3.5
			c-0.9-1-2-1.8-3.3-2.4c-1.3-0.6-2.7-0.9-4.4-0.9c-1.6,0-3,0.3-4.3,0.9c-1.3,0.6-2.4,1.4-3.3,2.4c-0.9,1-1.6,2.2-2.1,3.5
			s-0.7,2.8-0.7,4.3c0,1.5,0.2,3,0.7,4.3c0.5,1.4,1.2,2.5,2.1,3.5c0.9,1,2,1.8,3.3,2.4c1.3,0.6,2.7,0.9,4.3,0.9
			c1.6,0,3.1-0.3,4.4-0.9c1.3-0.6,2.4-1.4,3.3-2.4c0.9-1,1.6-2.2,2.1-3.5C131.5,30.8,131.8,29.4,131.8,27.9z"/>
		<path id="XMLID_43_" class="st0" d="M33.8,54.2c-1.5-1.5-3.2-2.7-5.2-3.6c-2-0.8-4.3-1.3-6.9-1.3c-2.7,0-5.1,0.5-7.2,1.5
			c-2.1,1-4,2.3-5.4,4c-1.5,1.7-2.6,3.6-3.4,5.8c-0.8,2.2-1.2,4.5-1.2,6.9c0,2.4,0.4,4.7,1.2,6.9c0.8,2.2,2,4.1,3.4,5.8
			c1.5,1.6,3.3,3,5.4,3.9c2.1,1,4.5,1.5,7.2,1.5c2.4,0,4.5-0.3,6.5-0.8c2-0.5,3.5-1.2,4.8-1.9V70.2h-9.7v-3.8h13.9v18.8
			c-2.3,1.4-4.7,2.4-7.4,3.1s-5.4,1-8.2,1c-3.1,0-6-0.5-8.7-1.6c-2.7-1.1-5-2.6-6.9-4.6c-1.9-1.9-3.4-4.2-4.5-6.9
			C0.5,73.6,0,70.6,0,67.5c0-3.2,0.5-6.1,1.6-8.8c1.1-2.7,2.6-5,4.6-6.9s4.2-3.5,6.9-4.6c2.6-1.1,5.5-1.6,8.6-1.6
			c3.3,0,6.2,0.5,8.7,1.5c2.5,1,4.6,2.4,6.4,4.2L33.8,54.2z"/>
		<path id="XMLID_45_" class="st0" d="M68.5,73.7c0,0.3,0,0.6,0,0.9c0,0.3,0,0.6-0.1,1H45.6c0,1.4,0.3,2.7,0.8,3.9
			c0.5,1.2,1.2,2.3,2.1,3.2c0.9,0.9,2,1.6,3.2,2.1c1.2,0.5,2.5,0.8,3.9,0.8c2.1,0,3.9-0.5,5.4-1.4c1.5-1,2.7-2.1,3.4-3.3l3,2.4
			c-1.6,2.1-3.5,3.6-5.4,4.5S57.9,89,55.6,89c-2,0-3.9-0.4-5.7-1.1c-1.7-0.7-3.2-1.7-4.5-3c-1.3-1.3-2.2-2.8-3-4.6
			c-0.7-1.8-1.1-3.7-1.1-5.8c0-2.1,0.4-4,1.1-5.8c0.7-1.8,1.7-3.3,2.9-4.6c1.3-1.3,2.7-2.3,4.4-3c1.7-0.7,3.5-1.1,5.5-1.1
			c2.2,0,4.1,0.4,5.7,1.1c1.6,0.7,3,1.7,4.1,2.9c1.1,1.2,1.9,2.7,2.5,4.3C68.2,70,68.5,71.8,68.5,73.7z M64.4,72.4
			c-0.1-2.6-1-4.7-2.5-6.4s-3.8-2.6-6.6-2.6c-1.3,0-2.6,0.2-3.7,0.7c-1.1,0.5-2.1,1.2-3,2C47.7,67,47,67.9,46.5,69
			c-0.5,1.1-0.8,2.2-0.9,3.4H64.4z"/>
		<path id="XMLID_49_" class="st0" d="M76.2,60.8c0.1,0.7,0.1,1.6,0.2,2.5c0,0.9,0.1,1.6,0.1,2.2h0.1c0.8-1.6,2.1-2.9,3.8-3.9
			c1.8-1,3.6-1.5,5.6-1.5c3.5,0,6.1,1,7.9,3.1c1.7,2.1,2.6,4.8,2.6,8.2v16.9h-4V73c0-1.5-0.1-2.8-0.4-3.9s-0.6-2.2-1.2-3
			c-0.6-0.8-1.3-1.5-2.3-2c-1-0.5-2.2-0.7-3.6-0.7c-1.1,0-2.1,0.2-3.1,0.6c-1,0.4-1.9,1.1-2.7,2c-0.8,0.9-1.4,2-1.9,3.4
			s-0.7,3-0.7,4.8v14.1h-4V66.8c0-0.7,0-1.7-0.1-2.9c0-1.2-0.1-2.2-0.2-3.2H76.2z"/>
		<path id="XMLID_52_" class="st0" d="M107.3,50.2c0,0.8-0.3,1.5-0.9,2s-1.2,0.8-1.9,0.8c-0.7,0-1.4-0.3-1.9-0.8
			c-0.6-0.5-0.9-1.2-0.9-2c0-0.8,0.3-1.5,0.9-2c0.6-0.5,1.2-0.8,1.9-0.8c0.7,0,1.4,0.3,1.9,0.8S107.3,49.3,107.3,50.2z M106.4,88.3
			h-4V60.8h4V88.3z"/>
	</g>
	<g id="XMLID_524_">
		<path id="XMLID_529_" class="st1" d="M91.3,98.4c32.5,0,57.2-34.9,57.2-78l2.4,0.9c0,43.1-26.3,79.6-58.8,79.6L91.3,98.4z"/>
		<path id="XMLID_528_" class="st1" d="M123.8,54.4c3.8,24.5,20,40.4,38.7,37.5l0.2,2.3C144,97,125.1,79.7,121.2,55.2L123.8,54.4z"
			/>
		<g id="XMLID_525_">
			<path id="XMLID_527_" class="st2" d="M150.9,22h-1.8c-1.5,0-2.7-1.2-2.7-2.7V3.6c0-1.5,1.2-2.7,2.7-2.7l1.8,0
				c1.5,0,2.7,1.2,2.7,2.7v15.6C153.6,20.7,152.4,22,150.9,22z"/>
			<path id="XMLID_526_" class="st2" d="M141.9,12.3v-1.8c0-1.5,1.2-2.7,2.7-2.7h10.9c1.5,0,2.7,1.2,2.7,2.7v1.8
				c0,1.5-1.2,2.7-2.7,2.7h-10.9C143.1,15,141.9,13.8,141.9,12.3z"/>
		</g>
	</g>
</g>
</svg>
